<svg xmlns="http://www.w3.org/2000/svg" viewBox="0 0 32 32" width="32" height="32">
  <defs>
    <linearGradient id="grad" x1="0%" y1="0%" x2="100%" y2="100%">
      <stop offset="0%" stop-color="#4DA2FF" />
      <stop offset="100%" stop-color="#6366F1" />
    </linearGradient>
  </defs>
  <!-- Background rounded rect -->
  <rect width="32" height="32" rx="8" fill="url(#grad)" />
  <!-- Document Sheet -->
  <path d="M9 7h10l5 5v13a2 2 0 0 1-2 2H9a2 2 0 0 1-2-2V9a2 2 0 0 1 2-2z" fill="#ffffff" />
  <!-- Folded Corner -->
  <path d="M19 7v5h5z" fill="#D2E6FF" />
  <!-- Document Lines -->
  <line x1="11" y1="13" x2="17" y2="13" stroke="#4F46E5" stroke-width="1.5" stroke-linecap="round" />
  <line x1="11" y1="17" x2="21" y2="17" stroke="#4F46E5" stroke-width="1.5" stroke-linecap="round" />
  <line x1="11" y1="21" x2="18" y2="21" stroke="#4F46E5" stroke-width="1.5" stroke-linecap="round" />
  <!-- Spark/Star (AI indicator) -->
  <path d="M25 5c0 1.5-1 2.5-2.5 2.5 1.5 0 2.5 1 2.5 2.5 0-1.5 1-2.5 2.5-2.5-1.5 0-2.5-1-2.5-2.5z" fill="#FFE885" />
</svg>
